<svg xmlns="http://www.w3.org/2000/svg" width="1180" height="760" viewBox="0 0 1180 760"><rect width="100%" height="100%" fill="#ffffff"/>
<text x="590.0" y="28" text-anchor="middle" font-family="Segoe UI, Arial" font-size="18" font-weight="700" fill="#111827">C4 Level 3: MCP Tool Layer (authn + dispatch + judge)</text>
<rect x="30" y="120" width="170" height="70" rx="12" fill="#64748b" opacity="0.1"/><rect x="30" y="120" width="170" height="70" rx="12" fill="none" stroke="#64748b" stroke-width="1.6"/><text x="115.0" y="146" text-anchor="middle" font-family="Segoe UI, Arial" font-size="13.5" font-weight="700" fill="#111827">Клиент</text><text x="115.0" y="164" text-anchor="middle" font-family="Segoe UI, Arial" font-size="10" fill="#6b7280">UI / внешний агент</text>
<rect x="230" y="64" width="650" height="470" rx="16" fill="#f8fafc" stroke="#94a3b8" stroke-width="1.4" stroke-dasharray="8,5"/>
<text x="245" y="84" font-family="Segoe UI, Arial" font-size="12" font-weight="600" fill="#475569">MCP Tool Surface (FastAPI /api/v1)</text>
<rect x="250" y="104" width="180" height="76" rx="12" fill="#0ea5e9" opacity="0.1"/><rect x="250" y="104" width="180" height="76" rx="12" fill="none" stroke="#0ea5e9" stroke-width="1.6"/><text x="340.0" y="130" text-anchor="middle" font-family="Segoe UI, Arial" font-size="13.5" font-weight="700" fill="#111827">API Gateway</text><text x="340.0" y="148" text-anchor="middle" font-family="Segoe UI, Arial" font-size="10" fill="#6b7280">POST /api/v1/tools/call</text>
<rect x="450" y="104" width="180" height="76" rx="12" fill="#8b5cf6" opacity="0.1"/><rect x="450" y="104" width="180" height="76" rx="12" fill="none" stroke="#8b5cf6" stroke-width="1.6"/><text x="540.0" y="130" text-anchor="middle" font-family="Segoe UI, Arial" font-size="13.5" font-weight="700" fill="#111827">Auth</text><text x="540.0" y="148" text-anchor="middle" font-family="Segoe UI, Arial" font-size="10" fill="#6b7280">X-API-Key → роль</text><text x="540.0" y="161" text-anchor="middle" font-family="Segoe UI, Arial" font-size="10" fill="#6b7280">401 SOV-4002</text>
<rect x="650" y="104" width="180" height="76" rx="12" fill="#6366f1" opacity="0.1"/><rect x="650" y="104" width="180" height="76" rx="12" fill="none" stroke="#6366f1" stroke-width="1.6"/><text x="740.0" y="130" text-anchor="middle" font-family="Segoe UI, Arial" font-size="13.5" font-weight="700" fill="#111827">Tool Registry</text><text x="740.0" y="148" text-anchor="middle" font-family="Segoe UI, Arial" font-size="10" fill="#6b7280">JSON Schema</text><text x="740.0" y="161" text-anchor="middle" font-family="Segoe UI, Arial" font-size="10" fill="#6b7280">validate_args</text><text x="740.0" y="174" text-anchor="middle" font-family="Segoe UI, Arial" font-size="10" fill="#6b7280">SOV-1001/1003</text>
<rect x="450" y="210" width="180" height="76" rx="12" fill="#7c3aed" opacity="0.1"/><rect x="450" y="210" width="180" height="76" rx="12" fill="none" stroke="#7c3aed" stroke-width="1.6"/><text x="540.0" y="236" text-anchor="middle" font-family="Segoe UI, Arial" font-size="13.5" font-weight="700" fill="#111827">Tool Dispatcher</text><text x="540.0" y="254" text-anchor="middle" font-family="Segoe UI, Arial" font-size="10" fill="#6b7280">scopes → SOV-4001</text><text x="540.0" y="267" text-anchor="middle" font-family="Segoe UI, Arial" font-size="10" fill="#6b7280">маршрутизация</text>
<rect x="250" y="330" width="180" height="110" rx="12" fill="#10b981" opacity="0.1"/><rect x="250" y="330" width="180" height="110" rx="12" fill="none" stroke="#10b981" stroke-width="1.6"/><text x="340.0" y="356" text-anchor="middle" font-family="Segoe UI, Arial" font-size="13.5" font-weight="700" fill="#111827">Graph Tools</text><text x="340.0" y="374" text-anchor="middle" font-family="Segoe UI, Arial" font-size="10" fill="#6b7280">graph.query</text><text x="340.0" y="387" text-anchor="middle" font-family="Segoe UI, Arial" font-size="10" fill="#6b7280">graph.schema</text><text x="340.0" y="400" text-anchor="middle" font-family="Segoe UI, Arial" font-size="10" fill="#6b7280">cypher_guard (read-only)</text>
<rect x="450" y="330" width="180" height="110" rx="12" fill="#10b981" opacity="0.1"/><rect x="450" y="330" width="180" height="110" rx="12" fill="none" stroke="#10b981" stroke-width="1.6"/><text x="540.0" y="356" text-anchor="middle" font-family="Segoe UI, Arial" font-size="13.5" font-weight="700" fill="#111827">Vector Tools</text><text x="540.0" y="374" text-anchor="middle" font-family="Segoe UI, Arial" font-size="10" fill="#6b7280">vector.search</text><text x="540.0" y="387" text-anchor="middle" font-family="Segoe UI, Arial" font-size="10" fill="#6b7280">rerank</text><text x="540.0" y="400" text-anchor="middle" font-family="Segoe UI, Arial" font-size="10" fill="#6b7280">upsert</text><text x="540.0" y="413" text-anchor="middle" font-family="Segoe UI, Arial" font-size="10" fill="#6b7280">bge-m3 + Qwen2.5-7B</text>
<rect x="650" y="330" width="180" height="110" rx="12" fill="#f59e0b" opacity="0.1"/><rect x="650" y="330" width="180" height="110" rx="12" fill="none" stroke="#f59e0b" stroke-width="1.6"/><text x="740.0" y="356" text-anchor="middle" font-family="Segoe UI, Arial" font-size="13.5" font-weight="700" fill="#111827">Chat Tools</text><text x="740.0" y="374" text-anchor="middle" font-family="Segoe UI, Arial" font-size="10" fill="#6b7280">chat.complete</text><text x="740.0" y="387" text-anchor="middle" font-family="Segoe UI, Arial" font-size="10" fill="#6b7280">chat.stream</text><text x="740.0" y="400" text-anchor="middle" font-family="Segoe UI, Arial" font-size="10" fill="#6b7280">LangGraph pipeline</text>
<rect x="910" y="104" width="170" height="70" rx="12" fill="#f59e0b" opacity="0.1"/><rect x="910" y="104" width="170" height="70" rx="12" fill="none" stroke="#f59e0b" stroke-width="1.6"/><text x="995.0" y="130" text-anchor="middle" font-family="Segoe UI, Arial" font-size="13.5" font-weight="700" fill="#111827">LangGraph</text><text x="995.0" y="148" text-anchor="middle" font-family="Segoe UI, Arial" font-size="10" fill="#6b7280">7 агентов Plan-Observe-Act</text>
<rect x="910" y="200" width="170" height="70" rx="12" fill="#059669" opacity="0.1"/><rect x="910" y="200" width="170" height="70" rx="12" fill="none" stroke="#059669" stroke-width="1.6"/><text x="995.0" y="226" text-anchor="middle" font-family="Segoe UI, Arial" font-size="13.5" font-weight="700" fill="#111827">Neo4j</text><text x="995.0" y="244" text-anchor="middle" font-family="Segoe UI, Arial" font-size="10" fill="#6b7280">LegalAct</text><text x="995.0" y="257" text-anchor="middle" font-family="Segoe UI, Arial" font-size="10" fill="#6b7280">access_level</text>
<rect x="910" y="300" width="170" height="70" rx="12" fill="#059669" opacity="0.1"/><rect x="910" y="300" width="170" height="70" rx="12" fill="none" stroke="#059669" stroke-width="1.6"/><text x="995.0" y="326" text-anchor="middle" font-family="Segoe UI, Arial" font-size="13.5" font-weight="700" fill="#111827">Qdrant</text><text x="995.0" y="344" text-anchor="middle" font-family="Segoe UI, Arial" font-size="10" fill="#6b7280">ruslawod</text><text x="995.0" y="357" text-anchor="middle" font-family="Segoe UI, Arial" font-size="10" fill="#6b7280">RBAC payload</text>
<rect x="910" y="400" width="170" height="70" rx="12" fill="#ef4444" opacity="0.1"/><rect x="910" y="400" width="170" height="70" rx="12" fill="none" stroke="#ef4444" stroke-width="1.6"/><text x="995.0" y="426" text-anchor="middle" font-family="Segoe UI, Arial" font-size="13.5" font-weight="700" fill="#111827">Ollama / vLLM</text><text x="995.0" y="444" text-anchor="middle" font-family="Segoe UI, Arial" font-size="10" fill="#6b7280">qwen2.5:7b</text><text x="995.0" y="457" text-anchor="middle" font-family="Segoe UI, Arial" font-size="10" fill="#6b7280">bge-m3</text>
<rect x="910" y="500" width="170" height="66" rx="12" fill="#8b5cf6" opacity="0.1"/><rect x="910" y="500" width="170" height="66" rx="12" fill="none" stroke="#8b5cf6" stroke-width="1.6"/><text x="995.0" y="526" text-anchor="middle" font-family="Segoe UI, Arial" font-size="13.5" font-weight="700" fill="#111827">GigaChat</text><text x="995.0" y="544" text-anchor="middle" font-family="Segoe UI, Arial" font-size="10" fill="#6b7280">LLM-as-a-Judge (eval)</text>
<rect x="910" y="596" width="170" height="60" rx="12" fill="#ec4899" opacity="0.1"/><rect x="910" y="596" width="170" height="60" rx="12" fill="none" stroke="#ec4899" stroke-width="1.6"/><text x="995.0" y="622" text-anchor="middle" font-family="Segoe UI, Arial" font-size="13.5" font-weight="700" fill="#111827">Langfuse</text><text x="995.0" y="640" text-anchor="middle" font-family="Segoe UI, Arial" font-size="10" fill="#6b7280">span: tool, tokens, latency</text>
<line x1="213.5" y1="151.3" x2="234.5" y2="145.7" stroke="#475569" stroke-width="1.5"/><polygon points="243.2,143.3 235.8,150.5 233.2,140.8" fill="#475569"/><text x="224.0" y="142.5" text-anchor="middle" font-family="Segoe UI, Arial" font-size="10" fill="#334155">POST /api/v1/tools/call</text>
<line x1="444.0" y1="142.0" x2="434.0" y2="142.0" stroke="#475569" stroke-width="1.5"/><polygon points="443.0,142.0 434.0,147.0 434.0,137.0" fill="#475569"/><text x="439.0" y="136.0" text-anchor="middle" font-family="Segoe UI, Arial" font-size="10" fill="#334155">resolve(X-API-Key)</text>
<line x1="644.0" y1="142.0" x2="634.0" y2="142.0" stroke="#475569" stroke-width="1.5"/><polygon points="643.0,142.0 634.0,147.0 634.0,137.0" fill="#475569"/><text x="639.0" y="136.0" text-anchor="middle" font-family="Segoe UI, Arial" font-size="10" fill="#334155">validate_args</text>
<line x1="726.2" y1="182.2" x2="573.8" y2="205.8" stroke="#7c3aed" stroke-width="1.5"/><polygon points="564.9,207.2 573.1,200.9 574.6,210.8" fill="#7c3aed"/><text x="650.0" y="188.0" text-anchor="middle" font-family="Segoe UI, Arial" font-size="10" fill="#334155">execute_tool (scopes)</text>
<line x1="486.5" y1="289.8" x2="363.5" y2="324.2" stroke="#10b981" stroke-width="1.5"/><polygon points="354.8,326.7 362.1,319.4 364.8,329.0" fill="#10b981"/><text x="425.0" y="301.0" text-anchor="middle" font-family="Segoe UI, Arial" font-size="10" fill="#334155">graph.*</text>
<line x1="540.0" y1="300.0" x2="540.0" y2="314.0" stroke="#10b981" stroke-width="1.5"/><polygon points="540.0,323.0 535.0,314.0 545.0,314.0" fill="#10b981"/><text x="540.0" y="301.0" text-anchor="middle" font-family="Segoe UI, Arial" font-size="10" fill="#334155">vector.*</text>
<line x1="598.4" y1="290.2" x2="706.6" y2="323.8" stroke="#f59e0b" stroke-width="1.5"/><polygon points="715.2,326.5 705.1,328.6 708.1,319.1" fill="#f59e0b"/><text x="652.5" y="301.0" text-anchor="middle" font-family="Segoe UI, Arial" font-size="10" fill="#334155">chat.*</text>
<line x1="353.2" y1="435.3" x2="896.8" y2="239.7" stroke="#059669" stroke-width="1.5"/><polygon points="905.3,236.7 898.5,244.4 895.1,235.0" fill="#059669"/><text x="625.0" y="331.5" text-anchor="middle" font-family="Segoe UI, Arial" font-size="10" fill="#334155">read-only Cypher</text>
<line x1="553.5" y1="436.2" x2="896.5" y2="338.8" stroke="#059669" stroke-width="1.5"/><polygon points="905.2,336.4 897.9,343.6 895.2,334.0" fill="#059669"/><text x="725.0" y="381.5" text-anchor="middle" font-family="Segoe UI, Arial" font-size="10" fill="#334155">query_points / upsert</text>
<line x1="554.0" y1="439.8" x2="896.0" y2="435.2" stroke="#ef4444" stroke-width="1.5"/><polygon points="905.0,435.1 896.1,440.2 895.9,430.2" fill="#ef4444"/><text x="725.0" y="431.5" text-anchor="middle" font-family="Segoe UI, Arial" font-size="10" fill="#334155">embed / rerank</text>
<line x1="746.9" y1="427.8" x2="903.1" y2="151.2" stroke="#f59e0b" stroke-width="1.5"/><polygon points="907.5,143.4 907.5,153.6 898.8,148.7" fill="#f59e0b"/><text x="825.0" y="283.5" text-anchor="middle" font-family="Segoe UI, Arial" font-size="10" fill="#334155">ainvoke</text>
<line x1="752.3" y1="446.7" x2="897.7" y2="526.3" stroke="#8b5cf6" stroke-width="1.5"/><polygon points="905.6,530.6 895.3,530.7 900.1,521.9" fill="#8b5cf6"/><text x="825.0" y="480.5" text-anchor="middle" font-family="Segoe UI, Arial" font-size="10" fill="#334155">judge-вызовы (eval)</text>
<line x1="351.0" y1="188.6" x2="899.0" y2="617.4" stroke="#ec4899" stroke-width="1.5"/><polygon points="906.1,622.9 895.9,621.3 902.1,613.4" fill="#ec4899"/><text x="625.0" y="397.0" text-anchor="middle" font-family="Segoe UI, Arial" font-size="10" fill="#334155">span</text>
<text x="590.0" y="746" text-anchor="middle" font-family="Segoe UI, Arial" font-size="11.5" fill="#6b7280">Реализация: backend/services/tool_dispatcher.py · auth: env API_KEYS · judge: GigaChatClient (OAuth2) · контракт: docs/mcp_design.md</text>
</svg>